{
	"asset":{
		"generator":"Khronos glTF Blender I/O v4.3.47",
		"version":"2.0"
	},
	"scene":0,
	"scenes":[
		{
			"name":"Scene",
			"nodes":[
				53
			]
		}
	],
	"nodes":[
		{
			"name":"Head",
			"rotation":[
				-0.07224439829587936,
				-9.283206026111657e-08,
				-4.413503784661543e-09,
				0.9973869919776917
			],
			"translation":[
				9.113431826207542e-16,
				0.08716105669736862,
				-3.725290298461914e-09
			]
		},
		{
			"children":[
				0
			],
			"name":"Neck",
			"rotation":[
				0.1806446760892868,
				6.64082904222596e-08,
				9.505146003618847e-09,
				0.9835484623908997
			],
			"scale":[
				1,
				0.9999999403953552,
				0.9999999403953552
			],
			"translation":[
				-4.4050663106009135e-17,
				0.07720358669757843,
				-3.725290298461914e-09
			]
		},
		{
			"name":"ThumbBJ_L",
			"rotation":[
				-0.09156586229801178,
				0.019745612516999245,
				0.018492145463824272,
				0.9954314827919006
			],
			"scale":[
				1,
				0.9999999403953552,
				0.9999999403953552
			],
			"translation":[
				-5.3783878684043884e-08,
				0.04420992732048035,
				-1.862645149230957e-08
			]
		},
		{
			"children":[
				2
			],
			"name":"ThumbAJ_L",
			"rotation":[
				-0.2230513095855713,
				0.05285199359059334,
				-0.01694442518055439,
				0.9732254147529602
			],
			"scale":[
				1,
				0.9999999403953552,
				1
			],
			"translation":[
				-8.416827768087387e-08,
				0.03574691340327263,
				-9.778887033462524e-09
			]
		},
		{
			"children":[
				3
			],
			"name":"ThumbRootJ",
			"rotation":[
				0.12578774988651276,
				-0.909207284450531,
				0.39101940393447876,
				0.06799562275409698
			],
			"scale":[
				1,
				0.9999999403953552,
				1.0000001192092896
			],
			"translation":[
				-0.015978246927261353,
				0.03755280375480652,
				-0.039329998195171356
			]
		},
		{
			"name":"IndexCJ_L",
			"rotation":[
				-0.08739469200372696,
				-0.010667108930647373,
				0.017724089324474335,
				0.9959589838981628
			],
			"scale":[
				0.9999999403953552,
				1,
				0.9999998807907104
			],
			"translation":[
				-3.259629011154175e-09,
				0.04176609590649605,
				-9.167706593871117e-08
			]
		},
		{
			"children":[
				5
			],
			"name":"IndexBJ_L",
			"rotation":[
				-0.0332934595644474,
				-0.0045722853392362595,
				-0.0027137172874063253,
				0.9994314908981323
			],
			"scale":[
				0.9999999403953552,
				1.0000001192092896,
				1.0000001192092896
			],
			"translation":[
				1.6298145055770874e-09,
				0.03476033732295036,
				1.9463186617940664e-08
			]
		},
		{
			"children":[
				6
			],
			"name":"IndexAJ_L",
			"rotation":[
				0.012226088903844357,
				0.709100067615509,
				-0.0230783149600029,
				0.7046240568161011
			],
			"scale":[
				1,
				1.0000001192092896,
				0.9999999403953552
			],
			"translation":[
				0.014579890295863152,
				0.10658731311559677,
				-0.03663947433233261
			]
		},
		{
			"name":"MiddleCJ_L",
			"rotation":[
				-0.02423333004117012,
				-0.0011875813361257315,
				-0.0054373955354094505,
				0.99969083070755
			],
			"scale":[
				0.9999998807907104,
				0.9999999403953552,
				0.9999999403953552
			],
			"translation":[
				-1.0710209608078003e-08,
				0.039941731840372086,
				-8.789356797933578e-08
			]
		},
		{
			"children":[
				8
			],
			"name":"MiddleBJ_L",
			"rotation":[
				-0.060658007860183716,
				-0.003367370693013072,
				0.011877265758812428,
				0.9980822801589966
			],
			"scale":[
				0.9999999403953552,
				1,
				1
			],
			"translation":[
				1.1408701539039612e-08,
				0.03445089980959892,
				-4.091998562216759e-08
			]
		},
		{
			"children":[
				9
			],
			"name":"MiddleAJ_L",
			"rotation":[
				0.021029032766819,
				0.7071462869644165,
				0.015093391761183739,
				0.7065932750701904
			],
			"scale":[
				1.0000001192092896,
				1.0000001192092896,
				1
			],
			"translation":[
				0.007516251411288977,
				0.11529990285634995,
				-0.00437403516843915
			]
		},
		{
			"name":"RingCJ_L",
			"rotation":[
				-0.05456142500042915,
				0.001770012197084725,
				-0.0324096754193306,
				0.9979827404022217
			],
			"scale":[
				0.9999999403953552,
				1,
				1
			],
			"translation":[
				1.3969838619232178e-08,
				0.04143015295267105,
				1.0128132998943329e-07
			]
		},
		{
			"children":[
				11
			],
			"name":"RingBJ_L",
			"rotation":[
				-0.01500794105231762,
				0.0009359259274788201,
				0.002692565554752946,
				0.9998832941055298
			],
			"scale":[
				0.9999999403953552,
				1,
				1
			],
			"translation":[
				-4.656612873077393e-10,
				0.03272256255149841,
				-1.00000761449337e-07
			]
		},
		{
			"children":[
				12
			],
			"name":"RingAJ_L",
			"rotation":[
				0.0452757366001606,
				0.7035751342773438,
				0.0803685411810875,
				0.7046085000038147
			],
			"scale":[
				1,
				1.0000001192092896,
				1
			],
			"translation":[
				-0.0014162170700728893,
				0.108858123421669,
				0.026862002909183502
			]
		},
		{
			"name":"PinkyCJ_L",
			"rotation":[
				-0.059882551431655884,
				0.007027513347566128,
				-0.05024704337120056,
				0.9969152212142944
			],
			"scale":[
				0.9999999403953552,
				0.9999998211860657,
				1
			],
			"translation":[
				-9.313225746154785e-09,
				0.03814799711108208,
				1.364387571811676e-07
			]
		},
		{
			"children":[
				14
			],
			"name":"PinkyBJ_L",
			"rotation":[
				0.008858646266162395,
				-0.0015932314563542604,
				-0.01080622710287571,
				0.9999011158943176
			],
			"scale":[
				1,
				1.0000001192092896,
				1
			],
			"translation":[
				-1.4901161193847656e-08,
				0.031237099319696426,
				-1.3504177331924438e-08
			]
		},
		{
			"children":[
				15
			],
			"name":"PinkyAJ_L",
			"rotation":[
				0.011405045166611671,
				0.6956959366798401,
				0.20309409499168396,
				0.6889339089393616
			],
			"scale":[
				0.9999999403953552,
				0.9999999403953552,
				0.9999999403953552
			],
			"translation":[
				-0.004701006691902876,
				0.09230569005012512,
				0.053481508046388626
			]
		},
		{
			"children":[
				4,
				7,
				10,
				13,
				16
			],
			"name":"Hand_L",
			"rotation":[
				0.007526151370257139,
				-0.0035880364011973143,
				0.02833452820777893,
				0.9995637536048889
			],
			"scale":[
				0.9999999403953552,
				1,
				0.9999999403953552
			],
			"translation":[
				-4.9662048695608974e-08,
				0.2731688916683197,
				1.0390067473053932e-08
			]
		},
		{
			"children":[
				17
			],
			"name":"ForeArm_L",
			"rotation":[
				-0.0008939518011175096,
				0.0001245078310603276,
				-0.0008033651392906904,
				0.9999992847442627
			],
			"scale":[
				0.9999999403953552,
				1,
				1
			],
			"translation":[
				1.852689592851675e-07,
				0.20657338201999664,
				6.429672794183716e-09
			]
		},
		{
			"children":[
				18
			],
			"name":"UpperArm_L",
			"rotation":[
				-0.2745027542114258,
				-2.0587147446349263e-05,
				-6.456686969613656e-05,
				0.9615863561630249
			],
			"scale":[
				1,
				0.9999999403953552,
				0.9999999403953552
			],
			"translation":[
				-5.657811108505939e-09,
				0.08462066948413849,
				-1.873559085652232e-09
			]
		},
		{
			"children":[
				19
			],
			"name":"Clavicle_L",
			"rotation":[
				-0.6546284556388855,
				-0.6970763206481934,
				0.11887456476688385,
				0.26723605394363403
			],
			"scale":[
				1,
				0.9999998211860657,
				1
			],
			"translation":[
				0.04231780394911766,
				0.035707682371139526,
				0.02345178835093975
			]
		},
		{
			"name":"ThumbBJ_R",
			"rotation":[
				0.09235347807407379,
				-0.019748246297240257,
				0.014066235162317753,
				0.9954310655593872
			],
			"scale":[
				0.9999999403953552,
				0.9999999403953552,
				1
			],
			"translation":[
				-5.98374754190445e-08,
				0.044210076332092285,
				-4.237517714500427e-08
			]
		},
		{
			"children":[
				21
			],
			"name":"ThumbAJ_R",
			"rotation":[
				0.22197648882865906,
				-0.05284598097205162,
				-0.02767004817724228,
				0.9732256531715393
			],
			"scale":[
				1,
				1,
				0.9999999403953552
			],
			"translation":[
				2.3748725652694702e-08,
				0.03574708476662636,
				1.0477378964424133e-08
			]
		},
		{
			"children":[
				22
			],
			"name":"ThumbRootJ.001",
			"rotation":[
				-0.3939369022846222,
				-0.08988163620233536,
				-0.11632876098155975,
				0.9073051810264587
			],
			"scale":[
				0.9999999403953552,
				0.9999999403953552,
				1
			],
			"translation":[
				0.015978941693902016,
				0.037552762776613235,
				-0.039329979568719864
			]
		},
		{
			"name":"IndexCJ_R",
			"rotation":[
				0.08739692717790604,
				0.010667971335351467,
				0.017725402489304543,
				0.995958685874939
			],
			"scale":[
				1,
				1.0000001192092896,
				1
			],
			"translation":[
				2.3283064365386963e-09,
				0.04176625609397888,
				5.471520125865936e-08
			]
		},
		{
			"children":[
				24
			],
			"name":"IndexBJ_R",
			"rotation":[
				0.03328931704163551,
				0.004574657417833805,
				-0.0027129549998790026,
				0.9994316101074219
			],
			"scale":[
				0.9999999403953552,
				1.0000001192092896,
				1
			],
			"translation":[
				7.712515071034431e-10,
				0.034759435802698135,
				5.8467776398174465e-08
			]
		},
		{
			"children":[
				25
			],
			"name":"IndexAJ_R",
			"rotation":[
				-0.023080356419086456,
				0.7046222686767578,
				0.012225957587361336,
				0.7091017961502075
			],
			"scale":[
				1,
				0.9999999403953552,
				0.9999999403953552
			],
			"translation":[
				-0.014579509384930134,
				0.10658753663301468,
				-0.03663947060704231
			]
		},
		{
			"name":"MiddleCJ_R",
			"rotation":[
				0.02423696592450142,
				0.0011880549136549234,
				-0.005437867715954781,
				0.9996907711029053
			],
			"scale":[
				0.9999999403953552,
				1,
				1
			],
			"translation":[
				5.587935447692871e-09,
				0.03994124010205269,
				5.564652383327484e-08
			]
		},
		{
			"children":[
				27
			],
			"name":"MiddleBJ_R",
			"rotation":[
				0.06065202131867409,
				0.003367824014276266,
				0.011877396143972874,
				0.9980826377868652
			],
			"scale":[
				0.9999999403953552,
				1,
				1.0000001192092896
			],
			"translation":[
				-1.3969838619232178e-09,
				0.03445090726017952,
				3.7282006815075874e-08
			]
		},
		{
			"children":[
				28
			],
			"name":"MiddleAJ_R",
			"rotation":[
				0.01509468536823988,
				0.7065922617912292,
				0.021027185022830963,
				0.7071473002433777
			],
			"scale":[
				1.0000001192092896,
				0.9999999403953552,
				1
			],
			"translation":[
				-0.007516642101109028,
				0.11530008167028427,
				-0.0043740528635680676
			]
		},
		{
			"name":"RingCJ_R",
			"rotation":[
				0.05457371845841408,
				-0.0017697905423119664,
				-0.03240950405597687,
				0.9979820847511292
			],
			"scale":[
				0.9999999403953552,
				1,
				1
			],
			"translation":[
				-1.862645149230957e-09,
				0.041430067270994186,
				7.846392691135406e-08
			]
		},
		{
			"children":[
				30
			],
			"name":"RingBJ_R",
			"rotation":[
				0.015005848370492458,
				-0.0009371523046866059,
				0.0026926351711153984,
				0.9998833537101746
			],
			"scale":[
				0.9999999403953552,
				1,
				1
			],
			"translation":[
				-2.7939677238464355e-09,
				0.03272296115756035,
				-6.58910721540451e-08
			]
		},
		{
			"children":[
				31
			],
			"name":"RingAJ_R",
			"rotation":[
				0.08036474138498306,
				0.7046084403991699,
				0.045278601348400116,
				0.7035753726959229
			],
			"scale":[
				1,
				0.9999997615814209,
				0.9999998807907104
			],
			"translation":[
				0.001416446059010923,
				0.1088576391339302,
				0.02686193771660328
			]
		},
		{
			"name":"PinkyCJ_R",
			"rotation":[
				0.05988088622689247,
				-0.007039180025458336,
				-0.05024762451648712,
				0.9969152212142944
			],
			"scale":[
				1,
				1,
				0.9999999403953552
			],
			"translation":[
				2.60770320892334e-08,
				0.03814806044101715,
				-7.636845111846924e-08
			]
		},
		{
			"children":[
				33
			],
			"name":"PinkyBJ_R",
			"rotation":[
				-0.008855699561536312,
				0.0015951828099787235,
				-0.010807673446834087,
				0.9999011158943176
			],
			"scale":[
				1,
				1.0000001192092896,
				1
			],
			"translation":[
				1.862645149230957e-09,
				0.03123714029788971,
				4.889443516731262e-08
			]
		},
		{
			"children":[
				34
			],
			"name":"PinkyAJ_R",
			"rotation":[
				0.20309433341026306,
				0.6889334321022034,
				0.01140590663999319,
				0.6956962943077087
			],
			"scale":[
				0.9999998211860657,
				0.9999995231628418,
				0.9999998807907104
			],
			"translation":[
				0.004700794816017151,
				0.09230595827102661,
				0.05348154529929161
			]
		},
		{
			"children":[
				23,
				26,
				29,
				32,
				35
			],
			"name":"Hand_R",
			"rotation":[
				0.007528274320065975,
				0.0035888305865228176,
				-0.028337597846984863,
				0.9995636343955994
			],
			"scale":[
				0.9999998807907104,
				1,
				0.9999999403953552
			],
			"translation":[
				9.611358109395951e-08,
				0.27316588163375854,
				-1.813532435335219e-09
			]
		},
		{
			"children":[
				36
			],
			"name":"ForeArm_R",
			"rotation":[
				-9.054951078724116e-06,
				-0.00012328730372246355,
				0.0008033731719478965,
				0.9999996423721313
			],
			"translation":[
				-1.0012348639065749e-07,
				0.20657627284526825,
				2.9958755476400256e-09
			]
		},
		{
			"children":[
				37
			],
			"name":"UpperArm_R",
			"rotation":[
				-0.2746647000312805,
				4.3219719373155385e-05,
				0.00014467797882389277,
				0.9615401029586792
			],
			"scale":[
				1,
				0.9999999403953552,
				0.9999999403953552
			],
			"translation":[
				-1.1419022882819263e-07,
				0.08462066948413849,
				1.9354047253727913e-09
			]
		},
		{
			"children":[
				38
			],
			"name":"Clavicle_R",
			"rotation":[
				-0.6546919941902161,
				0.6970086097717285,
				-0.11886315047740936,
				0.2672621011734009
			],
			"scale":[
				1,
				0.9999997019767761,
				1
			],
			"translation":[
				-0.04231780022382736,
				0.035705409944057465,
				0.02345130406320095
			]
		},
		{
			"children":[
				1,
				20,
				39
			],
			"name":"Spine3",
			"rotation":[
				0.08400442451238632,
				-3.712125007382383e-08,
				1.877646482739692e-09,
				0.9964653849601746
			],
			"translation":[
				9.126983294572427e-16,
				0.12206950038671494,
				-2.60770320892334e-08
			]
		},
		{
			"children":[
				40
			],
			"name":"Spine2",
			"rotation":[
				-0.2262880951166153,
				2.540060251021714e-08,
				-7.586904438028341e-09,
				0.9740604162216187
			],
			"translation":[
				8.133250064205194e-17,
				0.10828603804111481,
				2.3283064365386963e-09
			]
		},
		{
			"children":[
				41
			],
			"name":"Spine1",
			"rotation":[
				-0.20860813558101654,
				3.6230257904890095e-08,
				6.173689115485104e-09,
				0.9779993295669556
			],
			"translation":[
				1.3877787807814457e-15,
				0.07117829471826553,
				-2.1274900063872337e-08
			]
		},
		{
			"name":"Toe_L",
			"rotation":[
				0.26346689462661743,
				0.0024327458813786507,
				-0.015071147121489048,
				0.9645476341247559
			],
			"scale":[
				1,
				1.0000001192092896,
				1
			],
			"translation":[
				5.664255287030073e-09,
				0.15949033200740814,
				-5.77711034566164e-09
			]
		},
		{
			"children":[
				43
			],
			"name":"Foot_L",
			"rotation":[
				0.4962305724620819,
				0.00045911013148725033,
				0.0008020396344363689,
				0.8681902885437012
			],
			"scale":[
				1,
				1.0000001192092896,
				1.0000001192092896
			],
			"translation":[
				1.5954866317002825e-09,
				0.3816656470298767,
				-3.1489193474953936e-09
			]
		},
		{
			"children":[
				44
			],
			"name":"Shin_L",
			"rotation":[
				0.0003189445997122675,
				4.1860002397697826e-07,
				0.0008897659718059003,
				0.9999995827674866
			],
			"scale":[
				0.9999999403953552,
				1.0000001192092896,
				1
			],
			"translation":[
				5.040833084279939e-09,
				0.3354867100715637,
				5.601128449939097e-10
			]
		},
		{
			"children":[
				45
			],
			"name":"Thigh_L",
			"rotation":[
				-5.2356575906742364e-05,
				0.24258841574192047,
				0.9701293110847473,
				0.00020936185319442302
			],
			"scale":[
				0.9999999403953552,
				0.9999998211860657,
				0.9999988675117493
			],
			"translation":[
				0.07767165452241898,
				-0.033212095499038696,
				0.034480709582567215
			]
		},
		{
			"name":"Toe_R",
			"rotation":[
				0.2633982002735138,
				-0.006370110437273979,
				0.016229433938860893,
				0.9645296335220337
			],
			"scale":[
				0.9999999403953552,
				1,
				0.9999999403953552
			],
			"translation":[
				-6.87843737523508e-09,
				0.15949036180973053,
				-2.028536982834339e-08
			]
		},
		{
			"children":[
				47
			],
			"name":"Foot_R",
			"rotation":[
				0.49674269556999207,
				0.0013596402714028955,
				0.0023703845217823982,
				0.8678935766220093
			],
			"translation":[
				6.718966272245552e-09,
				0.3816656470298767,
				6.247375949897105e-10
			]
		},
		{
			"children":[
				48
			],
			"name":"Shin_R",
			"rotation":[
				0.0007143781986087561,
				-2.1439841191295272e-07,
				-0.0008882159017957747,
				0.9999993443489075
			],
			"scale":[
				1,
				1.0000001192092896,
				1
			],
			"translation":[
				-1.1898023899448162e-08,
				0.3354867398738861,
				2.4708146639795814e-10
			]
		},
		{
			"children":[
				49
			],
			"name":"Thigh_R",
			"rotation":[
				-1.895885907288175e-05,
				-0.24228589236736298,
				-0.9702048897743225,
				7.563338294858113e-05
			],
			"scale":[
				1,
				0.9999996423721313,
				0.9999989867210388
			],
			"translation":[
				-0.07767169922590256,
				-0.03321199119091034,
				0.03448066487908363
			]
		},
		{
			"children":[
				42,
				46,
				50
			],
			"name":"Hips",
			"rotation":[
				0.24253571033477783,
				-3.23251292400073e-08,
				-8.081286750893923e-09,
				0.9701424837112427
			],
			"scale":[
				1,
				0.9999999403953552,
				0.9999998211860657
			],
			"translation":[
				-6.310887100708772e-32,
				0.8618218898773193,
				-0.033841490745544434
			]
		},
		{
			"mesh":0,
			"name":"Body",
			"skin":0
		},
		{
			"children":[
				52,
				51
			],
			"name":"Armature"
		}
	],
	"meshes":[
		{
			"name":"Body",
			"primitives":[
				{
					"attributes":{
						"POSITION":0,
						"NORMAL":1,
						"JOINTS_0":2,
						"WEIGHTS_0":3
					},
					"indices":4
				}
			]
		}
	],
	"skins":[
		{
			"inverseBindMatrices":5,
			"joints":[
				51,
				42,
				41,
				40,
				1,
				0,
				20,
				19,
				18,
				17,
				4,
				3,
				2,
				7,
				6,
				5,
				10,
				9,
				8,
				13,
				12,
				11,
				16,
				15,
				14,
				39,
				38,
				37,
				36,
				23,
				22,
				21,
				26,
				25,
				24,
				29,
				28,
				27,
				32,
				31,
				30,
				35,
				34,
				33,
				46,
				45,
				44,
				43,
				50,
				49,
				48,
				47
			],
			"name":"Armature"
		}
	],
	"accessors":[
		{
			"bufferView":0,
			"componentType":5126,
			"count":5397,
			"max":[
				0.8267214298248291,
				1.6145398616790771,
				0.2286771833896637
			],
			"min":[
				-0.8267103433609009,
				-0.008481346070766449,
				-0.1762986183166504
			],
			"type":"VEC3"
		},
		{
			"bufferView":1,
			"componentType":5126,
			"count":5397,
			"type":"VEC3"
		},
		{
			"bufferView":2,
			"componentType":5121,
			"count":5397,
			"type":"VEC4"
		},
		{
			"bufferView":3,
			"componentType":5126,
			"count":5397,
			"type":"VEC4"
		},
		{
			"bufferView":4,
			"componentType":5123,
			"count":32370,
			"type":"SCALAR"
		},
		{
			"bufferView":5,
			"componentType":5126,
			"count":52,
			"type":"MAT4"
		}
	],
	"bufferViews":[
		{
			"buffer":0,
			"byteLength":64764,
			"byteOffset":0,
			"target":34962
		},
		{
			"buffer":0,
			"byteLength":64764,
			"byteOffset":64764,
			"target":34962
		},
		{
			"buffer":0,
			"byteLength":21588,
			"byteOffset":129528,
			"target":34962
		},
		{
			"buffer":0,
			"byteLength":86352,
			"byteOffset":151116,
			"target":34962
		},
		{
			"buffer":0,
			"byteLength":64740,
			"byteOffset":237468,
			"target":34963
		},
		{
			"buffer":0,
			"byteLength":3328,
			"byteOffset":302208
		}
	],
	"buffers":[
		{
			"byteLength":305536,
			"uri":"nabba.bin"
		}
	]
}
