{
	"asset":{
		"generator":"Khronos glTF Blender I/O v4.3.47",
		"version":"2.0"
	},
	"scene":0,
	"scenes":[
		{
			"name":"Scene",
			"nodes":[
				12
			]
		}
	],
	"nodes":[
		{
			"name":"ArmShortest_end",
			"rotation":[
				-3.109318358340829e-14,
				-7.577237283840077e-06,
				2.4851726720953593e-07,
				1
			],
			"translation":[
				-3.5119092078872427e-09,
				0.08994040638208389,
				6.325194590317551e-09
			]
		},
		{
			"children":[
				0
			],
			"name":"ArmShortest",
			"rotation":[
				0.015754729509353638,
				-1.4299685062724166e-05,
				2.4459737346660404e-07,
				0.9998759031295776
			],
			"scale":[
				1,
				0.9999999403953552,
				0.9999999403953552
			],
			"translation":[
				-7.429252768531569e-09,
				0.30888238549232483,
				-9.557425073580816e-09
			]
		},
		{
			"children":[
				1
			],
			"name":"ArmShorter",
			"rotation":[
				-0.00432695634663105,
				3.7282668927218765e-05,
				-2.430872427794384e-07,
				0.9999906420707703
			],
			"translation":[
				-6.385604933711875e-09,
				0.41941437125205994,
				-1.409207470715046e-07
			]
		},
		{
			"children":[
				2
			],
			"name":"ArmShort",
			"rotation":[
				0.2837463915348053,
				-0.0057306960225105286,
				-0.00163425097707659,
				0.9588808417320251
			],
			"scale":[
				0.9999999403953552,
				1,
				1.0000001192092896
			],
			"translation":[
				0.27783486247062683,
				1.1077147722244263,
				0.0027875970117747784
			]
		},
		{
			"children":[
				3
			],
			"name":"ArmLong_2",
			"rotation":[
				0.3426620066165924,
				-0.3386145234107971,
				-0.6159539818763733,
				0.6233166456222534
			],
			"translation":[
				-4.732537206564302e-08,
				0.19982191920280457,
				-2.6242956252531258e-08
			]
		},
		{
			"children":[
				4
			],
			"name":"ArmLong",
			"rotation":[
				-0.7071069478988647,
				-0.7071065902709961,
				-1.1050423687208877e-08,
				2.2197241378307808e-07
			],
			"translation":[
				7.533344614785165e-09,
				0.19646629691123962,
				0.3296998143196106
			]
		},
		{
			"children":[
				5
			],
			"name":"Motor",
			"rotation":[
				-0.4341788589954376,
				9.224685726394455e-08,
				7.467178875231184e-08,
				0.9008266925811768
			],
			"translation":[
				3.077218480029842e-10,
				0.5874665975570679,
				6.551259446041513e-08
			]
		},
		{
			"children":[
				6
			],
			"name":"Core.001",
			"rotation":[
				0.30534109473228455,
				-0.308644562959671,
				-0.6329396367073059,
				0.6410092115402222
			],
			"scale":[
				0.9999998807907104,
				0.9999998807907104,
				0.9999998211860657
			],
			"translation":[
				-4.2571802083557486e-08,
				0.037234801799058914,
				-7.210473995655775e-09
			]
		},
		{
			"children":[
				7
			],
			"name":"Core",
			"rotation":[
				0.07816639542579651,
				-0.07110758125782013,
				0.7005837559700012,
				0.7057026028633118
			],
			"translation":[
				-1.6611156894441592e-09,
				0.4292534589767456,
				3.3527619791584584e-08
			]
		},
		{
			"children":[
				8
			],
			"name":"Shoulder",
			"rotation":[
				-0.10553586483001709,
				1.7940482877065733e-08,
				-5.451540374679098e-08,
				0.9944154620170593
			],
			"translation":[
				3.374618084972525e-10,
				0.2527499496936798,
				-5.925649748661499e-09
			]
		},
		{
			"children":[
				9
			],
			"name":"Base",
			"rotation":[
				0.7071067094802856,
				-1.650326098001642e-08,
				0.7071068286895752,
				3.44429658127865e-08
			],
			"scale":[
				1,
				0.9999999403953552,
				1
			],
			"translation":[
				0,
				-1.1910822195204673e-07,
				-4.6526649200018255e-10
			]
		},
		{
			"mesh":0,
			"name":"Arm",
			"skin":0
		},
		{
			"children":[
				11,
				10
			],
			"name":"Armature"
		}
	],
	"materials":[
		{
			"doubleSided":true,
			"name":"Material",
			"pbrMetallicRoughness":{
				"baseColorTexture":{
					"index":0
				},
				"metallicFactor":0
			}
		}
	],
	"meshes":[
		{
			"name":"Arm",
			"primitives":[
				{
					"attributes":{
						"POSITION":0,
						"NORMAL":1,
						"TEXCOORD_0":2,
						"COLOR_0":3,
						"COLOR_1":4,
						"JOINTS_0":5,
						"WEIGHTS_0":6
					},
					"indices":7,
					"material":0
				}
			]
		}
	],
	"textures":[
		{
			"sampler":0,
			"source":0
		}
	],
	"images":[
		{
			"mimeType":"image/jpeg",
			"name":"Checker_albedo",
			"uri":"Checker_albedo.jpg"
		}
	],
	"skins":[
		{
			"inverseBindMatrices":8,
			"joints":[
				10,
				9,
				8,
				7,
				6,
				5,
				4,
				3,
				2,
				1,
				0
			],
			"name":"Armature"
		}
	],
	"accessors":[
		{
			"bufferView":0,
			"componentType":5126,
			"count":12994,
			"max":[
				0.8103808760643005,
				-1.215324942904772e-07,
				0.33203211426734924
			],
			"min":[
				-1.1244685649871826,
				-2.117447853088379,
				-0.30718526244163513
			],
			"type":"VEC3"
		},
		{
			"bufferView":1,
			"componentType":5126,
			"count":12994,
			"type":"VEC3"
		},
		{
			"bufferView":2,
			"componentType":5126,
			"count":12994,
			"type":"VEC2"
		},
		{
			"bufferView":3,
			"componentType":5121,
			"count":12994,
			"normalized":true,
			"type":"VEC4"
		},
		{
			"bufferView":4,
			"componentType":5123,
			"count":12994,
			"normalized":true,
			"type":"VEC4"
		},
		{
			"bufferView":5,
			"componentType":5121,
			"count":12994,
			"type":"VEC4"
		},
		{
			"bufferView":6,
			"componentType":5126,
			"count":12994,
			"type":"VEC4"
		},
		{
			"bufferView":7,
			"componentType":5123,
			"count":34017,
			"type":"SCALAR"
		},
		{
			"bufferView":8,
			"componentType":5126,
			"count":11,
			"type":"MAT4"
		}
	],
	"bufferViews":[
		{
			"buffer":0,
			"byteLength":155928,
			"byteOffset":0,
			"target":34962
		},
		{
			"buffer":0,
			"byteLength":155928,
			"byteOffset":155928,
			"target":34962
		},
		{
			"buffer":0,
			"byteLength":103952,
			"byteOffset":311856,
			"target":34962
		},
		{
			"buffer":0,
			"byteLength":51976,
			"byteOffset":415808,
			"target":34962
		},
		{
			"buffer":0,
			"byteLength":103952,
			"byteOffset":467784,
			"target":34962
		},
		{
			"buffer":0,
			"byteLength":51976,
			"byteOffset":571736,
			"target":34962
		},
		{
			"buffer":0,
			"byteLength":207904,
			"byteOffset":623712,
			"target":34962
		},
		{
			"buffer":0,
			"byteLength":68034,
			"byteOffset":831616,
			"target":34963
		},
		{
			"buffer":0,
			"byteLength":704,
			"byteOffset":899652
		}
	],
	"samplers":[
		{
			"magFilter":9729,
			"minFilter":9987
		}
	],
	"buffers":[
		{
			"byteLength":900356,
			"uri":"kuma_r9k.bin"
		}
	]
}
